<?xml version="1.0" encoding="UTF-8"?><svg id="a" xmlns="http://www.w3.org/2000/svg" width="200" height="200" viewBox="0 0 200 200"><path d="M63.95,42.87l-16.98,97.98h22.51l-2.99,16.9H0l2.99-16.9h23.48l14.06-81h-23.56l2.99-16.98h43.98Z" fill="#fff"/><path d="M128.76,141.97c1.82-.55,3.48-1.37,4.97-2.47,1.45-1.05,2.68-2.37,3.7-3.96,1.02-1.59,1.68-3.39,1.98-5.38l19-.15c-.25,4.59-1.47,8.71-3.67,12.38-2.19,3.66-4.99,6.77-8.38,9.31-3.44,2.54-7.27,4.48-11.48,5.8-4.21,1.32-8.49,1.93-12.83,1.83-3.69-.05-7.04-.55-10.06-1.5-3.02-.95-5.67-2.22-7.97-3.81-3.09-2.24-5.67-5-7.74-8.26-2.07-3.27-3.55-6.84-4.45-10.73-.6-2.49-.97-5.12-1.12-7.89s-.08-5.57.22-8.41l.22-2.32c.7-5.83,2.24-11.28,4.64-16.34,2.39-5.06,5.58-9.64,9.57-13.72,3.54-3.59,7.69-6.36,12.45-8.3,4.76-1.94,10.01-2.84,15.74-2.69,4.64.1,8.83.92,12.56,2.47,3.74,1.55,6.93,3.69,9.57,6.43,2.59,2.79,4.55,6.1,5.87,9.91,1.32,3.81,1.86,8.04,1.61,12.68l-19.07-.07c.15-1.99,0-3.88-.45-5.65-.45-1.77-1.2-3.3-2.24-4.6-1.05-1.3-2.37-2.33-3.96-3.1-1.6-.77-3.47-1.21-5.61-1.31-2.24-.05-4.26.22-6.06.82-1.79.6-3.39,1.45-4.79,2.54-1.1.9-2.12,1.94-3.07,3.14-.95,1.2-1.72,2.39-2.32,3.59-1.15,2.14-2.06,4.45-2.73,6.92-.67,2.47-1.16,4.9-1.46,7.29l-.3,2.24c-.15,1.6-.26,3.3-.34,5.12-.08,1.82-.04,3.6.11,5.35.25,1.99.67,3.93,1.27,5.8.6,1.87,1.54,3.45,2.84,4.75.9.9,2.01,1.62,3.33,2.17,1.32.55,2.88.85,4.67.9,1.99.05,3.9-.2,5.72-.75Z" fill="#fff"/><rect x="180" y="139.33" width="20" height="20" fill="#29abe2"/></svg>