<?xml version="1.0" encoding="UTF-8"?><svg id="a" xmlns="http://www.w3.org/2000/svg" width="200" height="200" viewBox="0 0 200 200"><rect width="200" height="200" fill="#111827"/><path d="M70.28,52l-13.99,80.76h18.56l-2.47,13.93H17.57l2.47-13.93h19.36l11.59-66.77h-19.42l2.47-13.99h36.25Z" fill="#fff"/><path d="M123.7,133.69c1.5-.45,2.87-1.13,4.1-2.03,1.19-.86,2.21-1.95,3.05-3.27.84-1.31,1.39-2.79,1.63-4.44l15.66-.12c-.21,3.78-1.21,7.18-3.02,10.2-1.81,3.02-4.11,5.58-6.9,7.68-2.84,2.1-5.99,3.69-9.46,4.78-3.47,1.09-7,1.59-10.57,1.51-3.04-.04-5.81-.45-8.29-1.23-2.49-.78-4.68-1.83-6.57-3.14-2.55-1.85-4.68-4.12-6.38-6.81-1.71-2.69-2.93-5.64-3.67-8.85-.49-2.05-.8-4.22-.92-6.5s-.06-4.59.19-6.94l.18-1.91c.58-4.81,1.85-9.3,3.82-13.47,1.97-4.17,4.6-7.94,7.89-11.31,2.92-2.96,6.34-5.24,10.26-6.84,3.93-1.6,8.25-2.34,12.98-2.22,3.82.08,7.27.76,10.36,2.03,3.08,1.27,5.71,3.04,7.89,5.3,2.14,2.3,3.75,5.02,4.84,8.17,1.09,3.14,1.53,6.63,1.33,10.45l-15.72-.06c.12-1.64,0-3.2-.37-4.65-.37-1.46-.99-2.72-1.85-3.79-.86-1.07-1.95-1.92-3.27-2.56-1.32-.64-2.86-1-4.62-1.08-1.85-.04-3.51.18-4.99.68-1.48.49-2.8,1.19-3.95,2.1-.9.74-1.75,1.6-2.53,2.59-.78.99-1.42,1.97-1.91,2.96-.94,1.77-1.69,3.67-2.25,5.7-.55,2.03-.96,4.04-1.2,6.01l-.25,1.85c-.12,1.32-.22,2.72-.28,4.22-.06,1.5-.03,2.97.09,4.41.21,1.64.56,3.24,1.05,4.78.49,1.54,1.27,2.85,2.34,3.91.74.74,1.65,1.34,2.74,1.79,1.09.45,2.37.7,3.85.74,1.64.04,3.22-.16,4.72-.62Z" fill="#fff"/><rect x="165.94" y="131.51" width="16.49" height="16.49" fill="#29abe2"/></svg>