<?xml version="1.0" encoding="UTF-8"?><svg id="a" xmlns="http://www.w3.org/2000/svg" width="200" height="200" viewBox="0 0 200 200"><circle cx="100" cy="100" r="100" fill="#111827"/><path d="M71.16,51.42l-13.58,78.38h18.01l-2.39,13.52H20l2.39-13.52h18.79l11.25-64.8h-18.85l2.39-13.58h35.18Z" fill="#fff"/><path d="M123,130.69c1.46-.44,2.78-1.1,3.98-1.97,1.16-.84,2.14-1.89,2.96-3.17.82-1.28,1.35-2.71,1.59-4.31l15.2-.12c-.2,3.67-1.18,6.97-2.93,9.9-1.76,2.93-3.99,5.41-6.7,7.45-2.75,2.03-5.81,3.58-9.18,4.64-3.37,1.06-6.79,1.54-10.26,1.47-2.95-.04-5.63-.44-8.05-1.2-2.41-.76-4.54-1.78-6.37-3.05-2.47-1.8-4.54-4-6.19-6.61-1.66-2.61-2.84-5.47-3.56-8.59-.48-1.99-.78-4.1-.9-6.31s-.06-4.46.18-6.73l.18-1.86c.56-4.67,1.8-9.02,3.71-13.07,1.91-4.05,4.47-7.71,7.66-10.98,2.83-2.87,6.15-5.09,9.96-6.64,3.81-1.56,8.01-2.27,12.6-2.15,3.71.08,7.06.74,10.05,1.97,2.99,1.24,5.54,2.95,7.66,5.15,2.07,2.23,3.64,4.88,4.7,7.93,1.06,3.05,1.48,6.43,1.29,10.14l-15.26-.06c.12-1.59,0-3.1-.36-4.52-.36-1.42-.96-2.64-1.79-3.68-.84-1.04-1.9-1.86-3.17-2.48-1.28-.62-2.77-.97-4.49-1.05-1.8-.04-3.41.18-4.85.66-1.44.48-2.71,1.16-3.83,2.03-.88.72-1.7,1.56-2.45,2.51-.76.96-1.38,1.91-1.86,2.87-.92,1.72-1.64,3.56-2.18,5.53-.54,1.97-.93,3.92-1.17,5.83l-.24,1.8c-.12,1.28-.21,2.64-.27,4.1-.06,1.46-.03,2.88.09,4.28.2,1.6.54,3.14,1.02,4.64.48,1.5,1.24,2.76,2.27,3.8.72.72,1.61,1.3,2.66,1.74,1.06.44,2.3.68,3.74.72,1.59.04,3.12-.16,4.58-.6Z" fill="#fff"/><rect x="164" y="128.58" width="16" height="16" fill="#29abe2"/></svg>